<svg width="334" height="100" viewBox="0 0 334 100" fill="none" xmlns="http://www.w3.org/2000/svg">
<path d="M71.456 56.776H78.624V61H65.984V38.536H71.456V56.776ZM89.362 61.256C87.6127 61.256 86.034 60.8827 84.626 60.136C83.2393 59.3893 82.1407 58.3227 81.33 56.936C80.5407 55.5493 80.146 53.928 80.146 52.072C80.146 50.2373 80.5513 48.6267 81.362 47.24C82.1727 45.832 83.282 44.7547 84.69 44.008C86.098 43.2613 87.6767 42.888 89.426 42.888C91.1753 42.888 92.754 43.2613 94.162 44.008C95.57 44.7547 96.6793 45.832 97.49 47.24C98.3007 48.6267 98.706 50.2373 98.706 52.072C98.706 53.9067 98.29 55.528 97.458 56.936C96.6473 58.3227 95.5273 59.3893 94.098 60.136C92.69 60.8827 91.1113 61.256 89.362 61.256ZM89.362 56.52C90.4073 56.52 91.2927 56.136 92.018 55.368C92.7647 54.6 93.138 53.5013 93.138 52.072C93.138 50.6427 92.7753 49.544 92.05 48.776C91.346 48.008 90.4713 47.624 89.426 47.624C88.3593 47.624 87.474 48.008 86.77 48.776C86.066 49.5227 85.714 50.6213 85.714 52.072C85.714 53.5013 86.0553 54.6 86.738 55.368C87.442 56.136 88.3167 56.52 89.362 56.52ZM108.393 42.888C109.652 42.888 110.75 43.144 111.689 43.656C112.649 44.168 113.385 44.84 113.897 45.672V43.144H119.369V60.968C119.369 62.6107 119.038 64.0933 118.377 65.416C117.737 66.76 116.745 67.8267 115.401 68.616C114.078 69.4053 112.425 69.8 110.441 69.8C107.796 69.8 105.652 69.1707 104.009 67.912C102.366 66.6747 101.428 64.9893 101.193 62.856H106.601C106.772 63.5387 107.177 64.072 107.817 64.456C108.457 64.8613 109.246 65.064 110.185 65.064C111.316 65.064 112.212 64.7333 112.873 64.072C113.556 63.432 113.897 62.3973 113.897 60.968V58.44C113.364 59.272 112.628 59.9547 111.689 60.488C110.75 61 109.652 61.256 108.393 61.256C106.921 61.256 105.588 60.8827 104.393 60.136C103.198 59.368 102.249 58.2907 101.545 56.904C100.862 55.496 100.521 53.8747 100.521 52.04C100.521 50.2053 100.862 48.5947 101.545 47.208C102.249 45.8213 103.198 44.7547 104.393 44.008C105.588 43.2613 106.921 42.888 108.393 42.888ZM113.897 52.072C113.897 50.7067 113.513 49.6293 112.745 48.84C111.998 48.0507 111.081 47.656 109.993 47.656C108.905 47.656 107.977 48.0507 107.209 48.84C106.462 49.608 106.089 50.6747 106.089 52.04C106.089 53.4053 106.462 54.4933 107.209 55.304C107.977 56.0933 108.905 56.488 109.993 56.488C111.081 56.488 111.998 56.0933 112.745 55.304C113.513 54.5147 113.897 53.4373 113.897 52.072ZM126.08 41.288C125.12 41.288 124.33 41.0107 123.712 40.456C123.114 39.88 122.816 39.176 122.816 38.344C122.816 37.4907 123.114 36.7867 123.712 36.232C124.33 35.656 125.12 35.368 126.08 35.368C127.018 35.368 127.786 35.656 128.384 36.232C129.002 36.7867 129.312 37.4907 129.312 38.344C129.312 39.176 129.002 39.88 128.384 40.456C127.786 41.0107 127.018 41.288 126.08 41.288ZM128.8 43.144V61H123.328V43.144H128.8ZM143.645 42.952C145.736 42.952 147.4 43.6347 148.637 45C149.896 46.344 150.525 48.2 150.525 50.568V61H145.085V51.304C145.085 50.1093 144.776 49.1813 144.157 48.52C143.539 47.8587 142.707 47.528 141.661 47.528C140.616 47.528 139.784 47.8587 139.165 48.52C138.547 49.1813 138.237 50.1093 138.237 51.304V61H132.765V43.144H138.237V45.512C138.792 44.7227 139.539 44.104 140.477 43.656C141.416 43.1867 142.472 42.952 143.645 42.952ZM176.018 61.224C174.376 61.224 172.904 60.9573 171.602 60.424C170.301 59.8907 169.256 59.1013 168.466 58.056C167.698 57.0107 167.293 55.752 167.25 54.28H173.074C173.16 55.112 173.448 55.752 173.938 56.2C174.429 56.6267 175.069 56.84 175.858 56.84C176.669 56.84 177.309 56.6587 177.778 56.296C178.248 55.912 178.482 55.3893 178.482 54.728C178.482 54.1733 178.29 53.7147 177.906 53.352C177.544 52.9893 177.085 52.6907 176.53 52.456C175.997 52.2213 175.229 51.9547 174.226 51.656C172.776 51.208 171.592 50.76 170.674 50.312C169.757 49.864 168.968 49.2027 168.306 48.328C167.645 47.4533 167.314 46.312 167.314 44.904C167.314 42.8133 168.072 41.1813 169.586 40.008C171.101 38.8133 173.074 38.216 175.506 38.216C177.981 38.216 179.976 38.8133 181.49 40.008C183.005 41.1813 183.816 42.824 183.922 44.936H178.002C177.96 44.2107 177.693 43.6453 177.202 43.24C176.712 42.8133 176.082 42.6 175.314 42.6C174.653 42.6 174.12 42.7813 173.714 43.144C173.309 43.4853 173.106 43.9867 173.106 44.648C173.106 45.3733 173.448 45.9387 174.13 46.344C174.813 46.7493 175.88 47.1867 177.33 47.656C178.781 48.1467 179.954 48.616 180.85 49.064C181.768 49.512 182.557 50.1627 183.218 51.016C183.88 51.8693 184.21 52.968 184.21 54.312C184.21 55.592 183.88 56.7547 183.218 57.8C182.578 58.8453 181.64 59.6773 180.402 60.296C179.165 60.9147 177.704 61.224 176.018 61.224ZM190.33 41.288C189.37 41.288 188.58 41.0107 187.962 40.456C187.364 39.88 187.066 39.176 187.066 38.344C187.066 37.4907 187.364 36.7867 187.962 36.232C188.58 35.656 189.37 35.368 190.33 35.368C191.268 35.368 192.036 35.656 192.634 36.232C193.252 36.7867 193.562 37.4907 193.562 38.344C193.562 39.176 193.252 39.88 192.634 40.456C192.036 41.0107 191.268 41.288 190.33 41.288ZM193.05 43.144V61H187.578V43.144H193.05ZM204.279 61.256C202.722 61.256 201.335 60.9893 200.119 60.456C198.903 59.9227 197.943 59.1973 197.239 58.28C196.535 57.3413 196.141 56.296 196.055 55.144H201.463C201.527 55.7627 201.815 56.264 202.327 56.648C202.839 57.032 203.469 57.224 204.215 57.224C204.898 57.224 205.421 57.096 205.783 56.84C206.167 56.5627 206.359 56.2107 206.359 55.784C206.359 55.272 206.093 54.8987 205.559 54.664C205.026 54.408 204.162 54.1307 202.967 53.832C201.687 53.5333 200.621 53.224 199.767 52.904C198.914 52.5627 198.178 52.04 197.559 51.336C196.941 50.6107 196.631 49.64 196.631 48.424C196.631 47.4 196.909 46.472 197.463 45.64C198.039 44.7867 198.871 44.1147 199.959 43.624C201.069 43.1333 202.381 42.888 203.895 42.888C206.135 42.888 207.895 43.4427 209.175 44.552C210.477 45.6613 211.223 47.1333 211.415 48.968H206.359C206.274 48.3493 205.997 47.8587 205.527 47.496C205.079 47.1333 204.482 46.952 203.735 46.952C203.095 46.952 202.605 47.08 202.263 47.336C201.922 47.5707 201.751 47.9013 201.751 48.328C201.751 48.84 202.018 49.224 202.551 49.48C203.106 49.736 203.959 49.992 205.111 50.248C206.434 50.5893 207.511 50.9307 208.343 51.272C209.175 51.592 209.901 52.1253 210.519 52.872C211.159 53.5973 211.49 54.5787 211.511 55.816C211.511 56.8613 211.213 57.8 210.615 58.632C210.039 59.4427 209.197 60.0827 208.087 60.552C206.999 61.0213 205.73 61.256 204.279 61.256ZM240.491 43.144L235.659 61H229.611L226.795 49.416L223.883 61H217.867L213.003 43.144H218.475L221.003 55.912L224.011 43.144H229.803L232.843 55.848L235.339 43.144H240.491ZM241.49 52.04C241.49 50.2053 241.831 48.5947 242.514 47.208C243.218 45.8213 244.167 44.7547 245.362 44.008C246.556 43.2613 247.89 42.888 249.362 42.888C250.62 42.888 251.719 43.144 252.658 43.656C253.618 44.168 254.354 44.84 254.866 45.672V43.144H260.338V61H254.866V58.472C254.332 59.304 253.586 59.976 252.626 60.488C251.687 61 250.588 61.256 249.33 61.256C247.879 61.256 246.556 60.8827 245.362 60.136C244.167 59.368 243.218 58.2907 242.514 56.904C241.831 55.496 241.49 53.8747 241.49 52.04ZM254.866 52.072C254.866 50.7067 254.482 49.6293 253.714 48.84C252.967 48.0507 252.05 47.656 250.962 47.656C249.874 47.656 248.946 48.0507 248.178 48.84C247.431 49.608 247.058 50.6747 247.058 52.04C247.058 53.4053 247.431 54.4933 248.178 55.304C248.946 56.0933 249.874 56.488 250.962 56.488C252.05 56.488 252.967 56.0933 253.714 55.304C254.482 54.5147 254.866 53.4373 254.866 52.072Z" fill="black"/>
</svg>
