<svg width="334" height="100" viewBox="0 0 334 100" fill="none" xmlns="http://www.w3.org/2000/svg">
<path d="M71.456 56.776H78.624V61H65.984V38.536H71.456V56.776ZM89.362 61.256C87.6127 61.256 86.034 60.8827 84.626 60.136C83.2393 59.3893 82.1407 58.3227 81.33 56.936C80.5407 55.5493 80.146 53.928 80.146 52.072C80.146 50.2373 80.5513 48.6267 81.362 47.24C82.1727 45.832 83.282 44.7547 84.69 44.008C86.098 43.2613 87.6767 42.888 89.426 42.888C91.1753 42.888 92.754 43.2613 94.162 44.008C95.57 44.7547 96.6793 45.832 97.49 47.24C98.3007 48.6267 98.706 50.2373 98.706 52.072C98.706 53.9067 98.29 55.528 97.458 56.936C96.6473 58.3227 95.5273 59.3893 94.098 60.136C92.69 60.8827 91.1113 61.256 89.362 61.256ZM89.362 56.52C90.4073 56.52 91.2927 56.136 92.018 55.368C92.7647 54.6 93.138 53.5013 93.138 52.072C93.138 50.6427 92.7753 49.544 92.05 48.776C91.346 48.008 90.4713 47.624 89.426 47.624C88.3593 47.624 87.474 48.008 86.77 48.776C86.066 49.5227 85.714 50.6213 85.714 52.072C85.714 53.5013 86.0553 54.6 86.738 55.368C87.442 56.136 88.3167 56.52 89.362 56.52ZM108.393 42.888C109.652 42.888 110.75 43.144 111.689 43.656C112.649 44.168 113.385 44.84 113.897 45.672V43.144H119.369V60.968C119.369 62.6107 119.038 64.0933 118.377 65.416C117.737 66.76 116.745 67.8267 115.401 68.616C114.078 69.4053 112.425 69.8 110.441 69.8C107.796 69.8 105.652 69.1707 104.009 67.912C102.366 66.6747 101.428 64.9893 101.193 62.856H106.601C106.772 63.5387 107.177 64.072 107.817 64.456C108.457 64.8613 109.246 65.064 110.185 65.064C111.316 65.064 112.212 64.7333 112.873 64.072C113.556 63.432 113.897 62.3973 113.897 60.968V58.44C113.364 59.272 112.628 59.9547 111.689 60.488C110.75 61 109.652 61.256 108.393 61.256C106.921 61.256 105.588 60.8827 104.393 60.136C103.198 59.368 102.249 58.2907 101.545 56.904C100.862 55.496 100.521 53.8747 100.521 52.04C100.521 50.2053 100.862 48.5947 101.545 47.208C102.249 45.8213 103.198 44.7547 104.393 44.008C105.588 43.2613 106.921 42.888 108.393 42.888ZM113.897 52.072C113.897 50.7067 113.513 49.6293 112.745 48.84C111.998 48.0507 111.081 47.656 109.993 47.656C108.905 47.656 107.977 48.0507 107.209 48.84C106.462 49.608 106.089 50.6747 106.089 52.04C106.089 53.4053 106.462 54.4933 107.209 55.304C107.977 56.0933 108.905 56.488 109.993 56.488C111.081 56.488 111.998 56.0933 112.745 55.304C113.513 54.5147 113.897 53.4373 113.897 52.072ZM126.08 41.288C125.12 41.288 124.33 41.0107 123.712 40.456C123.114 39.88 122.816 39.176 122.816 38.344C122.816 37.4907 123.114 36.7867 123.712 36.232C124.33 35.656 125.12 35.368 126.08 35.368C127.018 35.368 127.786 35.656 128.384 36.232C129.002 36.7867 129.312 37.4907 129.312 38.344C129.312 39.176 129.002 39.88 128.384 40.456C127.786 41.0107 127.018 41.288 126.08 41.288ZM128.8 43.144V61H123.328V43.144H128.8ZM143.645 42.952C145.736 42.952 147.4 43.6347 148.637 45C149.896 46.344 150.525 48.2 150.525 50.568V61H145.085V51.304C145.085 50.1093 144.776 49.1813 144.157 48.52C143.539 47.8587 142.707 47.528 141.661 47.528C140.616 47.528 139.784 47.8587 139.165 48.52C138.547 49.1813 138.237 50.1093 138.237 51.304V61H132.765V43.144H138.237V45.512C138.792 44.7227 139.539 44.104 140.477 43.656C141.416 43.1867 142.472 42.952 143.645 42.952ZM175.093 57.032H166.709L165.365 61H159.637L167.765 38.536H174.101L182.229 61H176.437L175.093 57.032ZM173.685 52.808L170.901 44.584L168.149 52.808H173.685ZM183.615 52.04C183.615 50.2053 183.956 48.5947 184.639 47.208C185.343 45.8213 186.292 44.7547 187.487 44.008C188.681 43.2613 190.015 42.888 191.487 42.888C192.66 42.888 193.727 43.1333 194.687 43.624C195.668 44.1147 196.436 44.776 196.991 45.608V37.32H202.463V61H196.991V58.44C196.479 59.2933 195.743 59.976 194.783 60.488C193.844 61 192.745 61.256 191.487 61.256C190.015 61.256 188.681 60.8827 187.487 60.136C186.292 59.368 185.343 58.2907 184.639 56.904C183.956 55.496 183.615 53.8747 183.615 52.04ZM196.991 52.072C196.991 50.7067 196.607 49.6293 195.839 48.84C195.092 48.0507 194.175 47.656 193.087 47.656C191.999 47.656 191.071 48.0507 190.303 48.84C189.556 49.608 189.183 50.6747 189.183 52.04C189.183 53.4053 189.556 54.4933 190.303 55.304C191.071 56.0933 191.999 56.488 193.087 56.488C194.175 56.488 195.092 56.0933 195.839 55.304C196.607 54.5147 196.991 53.4373 196.991 52.072ZM229.206 42.952C231.424 42.952 233.184 43.624 234.486 44.968C235.808 46.312 236.47 48.1787 236.47 50.568V61H231.03V51.304C231.03 50.152 230.72 49.2667 230.102 48.648C229.504 48.008 228.672 47.688 227.606 47.688C226.539 47.688 225.696 48.008 225.078 48.648C224.48 49.2667 224.182 50.152 224.182 51.304V61H218.742V51.304C218.742 50.152 218.432 49.2667 217.814 48.648C217.216 48.008 216.384 47.688 215.318 47.688C214.251 47.688 213.408 48.008 212.79 48.648C212.192 49.2667 211.894 50.152 211.894 51.304V61H206.422V43.144H211.894V45.384C212.448 44.6373 213.174 44.0507 214.07 43.624C214.966 43.176 215.979 42.952 217.11 42.952C218.454 42.952 219.648 43.24 220.694 43.816C221.76 44.392 222.592 45.2133 223.19 46.28C223.808 45.2987 224.651 44.4987 225.718 43.88C226.784 43.2613 227.947 42.952 229.206 42.952ZM243.049 41.288C242.089 41.288 241.299 41.0107 240.681 40.456C240.083 39.88 239.785 39.176 239.785 38.344C239.785 37.4907 240.083 36.7867 240.681 36.232C241.299 35.656 242.089 35.368 243.049 35.368C243.987 35.368 244.755 35.656 245.353 36.232C245.971 36.7867 246.281 37.4907 246.281 38.344C246.281 39.176 245.971 39.88 245.353 40.456C244.755 41.0107 243.987 41.288 243.049 41.288ZM245.769 43.144V61H240.297V43.144H245.769ZM260.614 42.952C262.705 42.952 264.369 43.6347 265.606 45C266.865 46.344 267.494 48.2 267.494 50.568V61H262.054V51.304C262.054 50.1093 261.745 49.1813 261.126 48.52C260.507 47.8587 259.675 47.528 258.63 47.528C257.585 47.528 256.753 47.8587 256.134 48.52C255.515 49.1813 255.206 50.1093 255.206 51.304V61H249.734V43.144H255.206V45.512C255.761 44.7227 256.507 44.104 257.446 43.656C258.385 43.1867 259.441 42.952 260.614 42.952Z" fill="black"/>
</svg>
