<svg width="233" height="100" viewBox="0 0 233 100" fill="none" xmlns="http://www.w3.org/2000/svg">
<path d="M74.4 38.536C76.768 38.536 78.8373 39.0053 80.608 39.944C82.3787 40.8827 83.744 42.2053 84.704 43.912C85.6853 45.5973 86.176 47.5493 86.176 49.768C86.176 51.9653 85.6853 53.9173 84.704 55.624C83.744 57.3307 82.368 58.6533 80.576 59.592C78.8053 60.5307 76.7467 61 74.4 61H65.984V38.536H74.4ZM74.048 56.264C76.1173 56.264 77.728 55.6987 78.88 54.568C80.032 53.4373 80.608 51.8373 80.608 49.768C80.608 47.6987 80.032 46.088 78.88 44.936C77.728 43.784 76.1173 43.208 74.048 43.208H71.456V56.264H74.048ZM88.146 52.04C88.146 50.2053 88.4873 48.5947 89.17 47.208C89.874 45.8213 90.8233 44.7547 92.018 44.008C93.2127 43.2613 94.546 42.888 96.018 42.888C97.2767 42.888 98.3753 43.144 99.314 43.656C100.274 44.168 101.01 44.84 101.522 45.672V43.144H106.994V61H101.522V58.472C100.989 59.304 100.242 59.976 99.282 60.488C98.3433 61 97.2447 61.256 95.986 61.256C94.5353 61.256 93.2127 60.8827 92.018 60.136C90.8233 59.368 89.874 58.2907 89.17 56.904C88.4873 55.496 88.146 53.8747 88.146 52.04ZM101.522 52.072C101.522 50.7067 101.138 49.6293 100.37 48.84C99.6233 48.0507 98.706 47.656 97.618 47.656C96.53 47.656 95.602 48.0507 94.834 48.84C94.0873 49.608 93.714 50.6747 93.714 52.04C93.714 53.4053 94.0873 54.4933 94.834 55.304C95.602 56.0933 96.53 56.488 97.618 56.488C98.706 56.488 99.6233 56.0933 100.37 55.304C101.138 54.5147 101.522 53.4373 101.522 52.072ZM119.913 47.688H116.969V61H111.497V47.688H109.513V43.144H111.497V42.632C111.497 40.4347 112.126 38.7707 113.385 37.64C114.643 36.488 116.489 35.912 118.921 35.912C119.326 35.912 119.625 35.9227 119.817 35.944V40.584C118.771 40.52 118.035 40.6693 117.609 41.032C117.182 41.3947 116.969 42.0453 116.969 42.984V43.144H119.913V47.688ZM132.436 56.36V61H129.652C127.668 61 126.121 60.52 125.012 59.56C123.903 58.5787 123.348 56.9893 123.348 54.792V47.688H121.172V43.144H123.348V38.792H128.82V43.144H132.404V47.688H128.82V54.856C128.82 55.3893 128.948 55.7733 129.204 56.008C129.46 56.2427 129.887 56.36 130.484 56.36H132.436ZM134.396 52.04C134.396 50.2053 134.737 48.5947 135.42 47.208C136.124 45.8213 137.073 44.7547 138.268 44.008C139.463 43.2613 140.796 42.888 142.268 42.888C143.527 42.888 144.625 43.144 145.564 43.656C146.524 44.168 147.26 44.84 147.772 45.672V43.144H153.244V61H147.772V58.472C147.239 59.304 146.492 59.976 145.532 60.488C144.593 61 143.495 61.256 142.236 61.256C140.785 61.256 139.463 60.8827 138.268 60.136C137.073 59.368 136.124 58.2907 135.42 56.904C134.737 55.496 134.396 53.8747 134.396 52.04ZM147.772 52.072C147.772 50.7067 147.388 49.6293 146.62 48.84C145.873 48.0507 144.956 47.656 143.868 47.656C142.78 47.656 141.852 48.0507 141.084 48.84C140.337 49.608 139.964 50.6747 139.964 52.04C139.964 53.4053 140.337 54.4933 141.084 55.304C141.852 56.0933 142.78 56.488 143.868 56.488C144.956 56.488 145.873 56.0933 146.62 55.304C147.388 54.5147 147.772 53.4373 147.772 52.072ZM162.675 46.12C163.315 45.1387 164.115 44.3707 165.075 43.816C166.035 43.24 167.101 42.952 168.275 42.952V48.744H166.771C165.405 48.744 164.381 49.0427 163.699 49.64C163.016 50.216 162.675 51.24 162.675 52.712V61H157.203V43.144H162.675V46.12Z" fill="black"/>
</svg>
