<svg width="1192" height="315" viewBox="0 0 1192 315" fill="none" xmlns="http://www.w3.org/2000/svg">
<path d="M82.224 228.448C78.9387 228.448 75.9947 227.915 73.392 226.848C70.7893 225.781 68.6987 224.203 67.12 222.112C65.584 220.021 64.7733 217.504 64.688 214.56H76.336C76.5067 216.224 77.0827 217.504 78.064 218.4C79.0453 219.253 80.3253 219.68 81.904 219.68C83.5253 219.68 84.8053 219.317 85.744 218.592C86.6827 217.824 87.152 216.779 87.152 215.456C87.152 214.347 86.768 213.429 86 212.704C85.2747 211.979 84.3573 211.381 83.248 210.912C82.1813 210.443 80.6453 209.909 78.64 209.312C75.7387 208.416 73.3707 207.52 71.536 206.624C69.7013 205.728 68.1227 204.405 66.8 202.656C65.4773 200.907 64.816 198.624 64.816 195.808C64.816 191.627 66.3307 188.363 69.36 186.016C72.3893 183.627 76.336 182.432 81.2 182.432C86.1493 182.432 90.1387 183.627 93.168 186.016C96.1973 188.363 97.8187 191.648 98.032 195.872H86.192C86.1067 194.421 85.5733 193.291 84.592 192.48C83.6107 191.627 82.352 191.2 80.816 191.2C79.4933 191.2 78.4267 191.563 77.616 192.288C76.8053 192.971 76.4 193.973 76.4 195.296C76.4 196.747 77.0827 197.877 78.448 198.688C79.8133 199.499 81.9467 200.373 84.848 201.312C87.7493 202.293 90.096 203.232 91.888 204.128C93.7227 205.024 95.3013 206.325 96.624 208.032C97.9467 209.739 98.608 211.936 98.608 214.624C98.608 217.184 97.9467 219.509 96.624 221.6C95.344 223.691 93.4667 225.355 90.992 226.592C88.5173 227.829 85.5947 228.448 82.224 228.448ZM156.223 183.072V228H145.279V201.056L135.231 228H126.399L116.287 200.992V228H105.343V183.072H118.271L130.879 214.176L143.359 183.072H156.223ZM190.141 228L175.037 208.16V228H164.093V183.072H175.037V202.784L190.013 183.072H202.877L185.469 205.088L203.517 228H190.141ZM248.91 228H237.966L219.662 200.288V228H208.718V183.072H219.662L237.966 210.912V183.072H248.91V228ZM268.166 191.456V181.28H285.894V228H274.502V191.456H268.166ZM306.174 205.472C306.174 201.035 307.135 197.088 309.055 193.632C310.975 190.133 313.641 187.424 317.055 185.504C320.511 183.541 324.415 182.56 328.767 182.56C334.1 182.56 338.665 183.968 342.463 186.784C346.26 189.6 348.799 193.44 350.079 198.304H338.047C337.151 196.427 335.871 194.997 334.207 194.016C332.585 193.035 330.729 192.544 328.639 192.544C325.268 192.544 322.537 193.717 320.447 196.064C318.356 198.411 317.311 201.547 317.311 205.472C317.311 209.397 318.356 212.533 320.447 214.88C322.537 217.227 325.268 218.4 328.639 218.4C330.729 218.4 332.585 217.909 334.207 216.928C335.871 215.947 337.151 214.517 338.047 212.64H350.079C348.799 217.504 346.26 221.344 342.463 224.16C338.665 226.933 334.1 228.32 328.767 228.32C324.415 228.32 320.511 227.36 317.055 225.44C313.641 223.477 310.975 220.768 309.055 217.312C307.135 213.856 306.174 209.909 306.174 205.472ZM367.725 183.072V228H356.781V183.072H367.725ZM426.536 183.072V228H415.592V201.056L405.544 228H396.712L386.6 200.992V228H375.656V183.072H388.583L401.192 214.176L413.672 183.072H426.536ZM462.374 220.064H445.606L442.918 228H431.462L447.718 183.072H460.39L476.646 228H465.062L462.374 220.064ZM459.558 211.616L453.99 195.168L448.486 211.616H459.558ZM520.505 183.072V228H509.561V209.504H492.537V228H481.593V183.072H492.537V200.672H509.561V183.072H520.505ZM539.35 183.072V228H528.406V183.072H539.35Z" fill="black"/>
<path d="M92.336 132.672C87.408 132.672 82.992 131.872 79.088 130.272C75.184 128.672 72.048 126.304 69.68 123.168C67.376 120.032 66.16 116.256 66.032 111.84H83.504C83.76 114.336 84.624 116.256 86.096 117.6C87.568 118.88 89.488 119.52 91.856 119.52C94.288 119.52 96.208 118.976 97.616 117.888C99.024 116.736 99.728 115.168 99.728 113.184C99.728 111.52 99.152 110.144 98 109.056C96.912 107.968 95.536 107.072 93.872 106.368C92.272 105.664 89.968 104.864 86.96 103.968C82.608 102.624 79.056 101.28 76.304 99.936C73.552 98.592 71.184 96.608 69.2 93.984C67.216 91.36 66.224 87.936 66.224 83.712C66.224 77.44 68.496 72.544 73.04 69.024C77.584 65.44 83.504 63.648 90.8 63.648C98.224 63.648 104.208 65.44 108.752 69.024C113.296 72.544 115.728 77.472 116.048 83.808H98.288C98.16 81.632 97.36 79.936 95.888 78.72C94.416 77.44 92.528 76.8 90.224 76.8C88.24 76.8 86.64 77.344 85.424 78.432C84.208 79.456 83.6 80.96 83.6 82.944C83.6 85.12 84.624 86.816 86.672 88.032C88.72 89.248 91.92 90.56 96.272 91.968C100.624 93.44 104.144 94.848 106.832 96.192C109.584 97.536 111.952 99.488 113.936 102.048C115.92 104.608 116.912 107.904 116.912 111.936C116.912 115.776 115.92 119.264 113.936 122.4C112.016 125.536 109.2 128.032 105.488 129.888C101.776 131.744 97.392 132.672 92.336 132.672ZM177.51 104.352C177.51 105.888 177.415 107.488 177.223 109.152H140.071C140.327 112.48 141.383 115.04 143.239 116.832C145.159 118.56 147.495 119.424 150.247 119.424C154.343 119.424 157.191 117.696 158.791 114.24H176.263C175.367 117.76 173.735 120.928 171.367 123.744C169.063 126.56 166.151 128.768 162.631 130.368C159.111 131.968 155.175 132.768 150.823 132.768C145.575 132.768 140.903 131.648 136.807 129.408C132.711 127.168 129.511 123.968 127.207 119.808C124.903 115.648 123.751 110.784 123.751 105.216C123.751 99.648 124.871 94.784 127.111 90.624C129.415 86.464 132.615 83.264 136.711 81.024C140.807 78.784 145.511 77.664 150.823 77.664C156.007 77.664 160.615 78.752 164.647 80.928C168.679 83.104 171.815 86.208 174.055 90.24C176.359 94.272 177.51 98.976 177.51 104.352ZM160.711 100.032C160.711 97.216 159.751 94.976 157.831 93.312C155.911 91.648 153.511 90.816 150.631 90.816C147.879 90.816 145.543 91.616 143.623 93.216C141.767 94.816 140.615 97.088 140.167 100.032H160.711ZM202.587 60.96V132H186.171V60.96H202.587ZM211.219 105.12C211.219 99.616 212.243 94.784 214.291 90.624C216.403 86.464 219.251 83.264 222.835 81.024C226.419 78.784 230.419 77.664 234.835 77.664C238.611 77.664 241.907 78.432 244.723 79.968C247.603 81.504 249.811 83.52 251.347 86.016V78.432H267.763V132H251.347V124.416C249.747 126.912 247.507 128.928 244.627 130.464C241.811 132 238.515 132.768 234.739 132.768C230.387 132.768 226.419 131.648 222.835 129.408C219.251 127.104 216.403 123.872 214.291 119.712C212.243 115.488 211.219 110.624 211.219 105.12ZM251.347 105.216C251.347 101.12 250.195 97.888 247.891 95.52C245.651 93.152 242.899 91.968 239.635 91.968C236.371 91.968 233.587 93.152 231.283 95.52C229.043 97.824 227.923 101.024 227.923 105.12C227.923 109.216 229.043 112.48 231.283 114.912C233.587 117.28 236.371 118.464 239.635 118.464C242.899 118.464 245.651 117.28 247.891 114.912C250.195 112.544 251.347 109.312 251.347 105.216ZM347.992 77.856C354.648 77.856 359.928 79.872 363.832 83.904C367.8 87.936 369.784 93.536 369.784 100.704V132H353.464V102.912C353.464 99.456 352.536 96.8 350.68 94.944C348.888 93.024 346.392 92.064 343.192 92.064C339.992 92.064 337.464 93.024 335.608 94.944C333.816 96.8 332.92 99.456 332.92 102.912V132H316.6V102.912C316.6 99.456 315.672 96.8 313.816 94.944C312.024 93.024 309.528 92.064 306.328 92.064C303.128 92.064 300.6 93.024 298.744 94.944C296.952 96.8 296.056 99.456 296.056 102.912V132H279.64V78.432H296.056V85.152C297.72 82.912 299.896 81.152 302.584 79.872C305.272 78.528 308.312 77.856 311.704 77.856C315.736 77.856 319.32 78.72 322.456 80.448C325.656 82.176 328.152 84.64 329.944 87.84C331.8 84.896 334.328 82.496 337.528 80.64C340.728 78.784 344.216 77.856 347.992 77.856ZM378.001 105.12C378.001 99.616 379.025 94.784 381.073 90.624C383.185 86.464 386.033 83.264 389.617 81.024C393.201 78.784 397.201 77.664 401.617 77.664C405.393 77.664 408.689 78.432 411.505 79.968C414.385 81.504 416.593 83.52 418.129 86.016V78.432H434.545V132H418.129V124.416C416.529 126.912 414.289 128.928 411.409 130.464C408.593 132 405.297 132.768 401.521 132.768C397.169 132.768 393.201 131.648 389.617 129.408C386.033 127.104 383.185 123.872 381.073 119.712C379.025 115.488 378.001 110.624 378.001 105.12ZM418.129 105.216C418.129 101.12 416.977 97.888 414.673 95.52C412.433 93.152 409.681 91.968 406.417 91.968C403.153 91.968 400.369 93.152 398.065 95.52C395.825 97.824 394.705 101.024 394.705 105.12C394.705 109.216 395.825 112.48 398.065 114.912C400.369 117.28 403.153 118.464 406.417 118.464C409.681 118.464 412.433 117.28 414.673 114.912C416.977 112.544 418.129 109.312 418.129 105.216ZM476.277 118.08V132H467.925C461.973 132 457.333 130.56 454.005 127.68C450.677 124.736 449.013 119.968 449.013 113.376V92.064H442.485V78.432H449.013V65.376H465.429V78.432H476.181V92.064H465.429V113.568C465.429 115.168 465.813 116.32 466.581 117.024C467.349 117.728 468.629 118.08 470.421 118.08H476.277ZM531.013 64.608C538.117 64.608 544.325 66.016 549.637 68.832C554.949 71.648 559.045 75.616 561.925 80.736C564.869 85.792 566.341 91.648 566.341 98.304C566.341 104.896 564.869 110.752 561.925 115.872C559.045 120.992 554.917 124.96 549.541 127.776C544.229 130.592 538.053 132 531.013 132H505.765V64.608H531.013ZM529.957 117.792C536.165 117.792 540.997 116.096 544.453 112.704C547.909 109.312 549.637 104.512 549.637 98.304C549.637 92.096 547.909 87.264 544.453 83.808C540.997 80.352 536.165 78.624 529.957 78.624H522.181V117.792H529.957ZM572.251 105.12C572.251 99.616 573.275 94.784 575.323 90.624C577.435 86.464 580.283 83.264 583.867 81.024C587.451 78.784 591.451 77.664 595.867 77.664C599.643 77.664 602.939 78.432 605.755 79.968C608.635 81.504 610.843 83.52 612.379 86.016V78.432H628.795V132H612.379V124.416C610.779 126.912 608.539 128.928 605.659 130.464C602.843 132 599.547 132.768 595.771 132.768C591.419 132.768 587.451 131.648 583.867 129.408C580.283 127.104 577.435 123.872 575.323 119.712C573.275 115.488 572.251 110.624 572.251 105.12ZM612.379 105.216C612.379 101.12 611.227 97.888 608.923 95.52C606.683 93.152 603.931 91.968 600.667 91.968C597.403 91.968 594.619 93.152 592.315 95.52C590.075 97.824 588.955 101.024 588.955 105.12C588.955 109.216 590.075 112.48 592.315 114.912C594.619 117.28 597.403 118.464 600.667 118.464C603.931 118.464 606.683 117.28 608.923 114.912C611.227 112.544 612.379 109.312 612.379 105.216ZM670.527 118.08V132H662.175C656.223 132 651.583 130.56 648.255 127.68C644.927 124.736 643.263 119.968 643.263 113.376V92.064H636.735V78.432H643.263V65.376H659.679V78.432H670.431V92.064H659.679V113.568C659.679 115.168 660.063 116.32 660.831 117.024C661.599 117.728 662.879 118.08 664.671 118.08H670.527ZM676.407 105.12C676.407 99.616 677.431 94.784 679.479 90.624C681.591 86.464 684.439 83.264 688.023 81.024C691.607 78.784 695.607 77.664 700.023 77.664C703.799 77.664 707.095 78.432 709.911 79.968C712.791 81.504 714.999 83.52 716.535 86.016V78.432H732.951V132H716.535V124.416C714.935 126.912 712.695 128.928 709.815 130.464C706.999 132 703.703 132.768 699.927 132.768C695.575 132.768 691.607 131.648 688.023 129.408C684.439 127.104 681.591 123.872 679.479 119.712C677.431 115.488 676.407 110.624 676.407 105.12ZM716.535 105.216C716.535 101.12 715.383 97.888 713.079 95.52C710.839 93.152 708.087 91.968 704.823 91.968C701.559 91.968 698.775 93.152 696.471 95.52C694.231 97.824 693.111 101.024 693.111 105.12C693.111 109.216 694.231 112.48 696.471 114.912C698.775 117.28 701.559 118.464 704.823 118.464C708.087 118.464 710.839 117.28 713.079 114.912C715.383 112.544 716.535 109.312 716.535 105.216ZM777.467 77.856C783.739 77.856 788.731 79.904 792.443 84C796.219 88.032 798.107 93.6 798.107 100.704V132H781.787V102.912C781.787 99.328 780.859 96.544 779.003 94.56C777.147 92.576 774.651 91.584 771.515 91.584C768.379 91.584 765.883 92.576 764.027 94.56C762.171 96.544 761.243 99.328 761.243 102.912V132H744.827V78.432H761.243V85.536C762.907 83.168 765.147 81.312 767.963 79.968C770.779 78.56 773.947 77.856 777.467 77.856ZM829.867 77.664C833.643 77.664 836.939 78.432 839.755 79.968C842.635 81.504 844.843 83.52 846.379 86.016V78.432H862.795V131.904C862.795 136.832 861.803 141.28 859.819 145.248C857.899 149.28 854.923 152.48 850.891 154.848C846.923 157.216 841.963 158.4 836.011 158.4C828.075 158.4 821.643 156.512 816.715 152.736C811.787 149.024 808.971 143.968 808.267 137.568H824.491C825.003 139.616 826.219 141.216 828.139 142.368C830.059 143.584 832.427 144.192 835.243 144.192C838.635 144.192 841.323 143.2 843.307 141.216C845.355 139.296 846.379 136.192 846.379 131.904V124.32C844.779 126.816 842.571 128.864 839.755 130.464C836.939 132 833.643 132.768 829.867 132.768C825.451 132.768 821.451 131.648 817.867 129.408C814.283 127.104 811.435 123.872 809.323 119.712C807.275 115.488 806.251 110.624 806.251 105.12C806.251 99.616 807.275 94.784 809.323 90.624C811.435 86.464 814.283 83.264 817.867 81.024C821.451 78.784 825.451 77.664 829.867 77.664ZM846.379 105.216C846.379 101.12 845.227 97.888 842.923 95.52C840.683 93.152 837.931 91.968 834.667 91.968C831.403 91.968 828.619 93.152 826.315 95.52C824.075 97.824 822.955 101.024 822.955 105.12C822.955 109.216 824.075 112.48 826.315 114.912C828.619 117.28 831.403 118.464 834.667 118.464C837.931 118.464 840.683 117.28 842.923 114.912C845.227 112.544 846.379 109.312 846.379 105.216ZM920.263 64.608C927.367 64.608 933.575 66.016 938.887 68.832C944.199 71.648 948.295 75.616 951.175 80.736C954.119 85.792 955.591 91.648 955.591 98.304C955.591 104.896 954.119 110.752 951.175 115.872C948.295 120.992 944.167 124.96 938.791 127.776C933.479 130.592 927.303 132 920.263 132H895.015V64.608H920.263ZM919.207 117.792C925.415 117.792 930.247 116.096 933.703 112.704C937.159 109.312 938.887 104.512 938.887 98.304C938.887 92.096 937.159 87.264 933.703 83.808C930.247 80.352 925.415 78.624 919.207 78.624H911.431V117.792H919.207ZM973.021 72.864C970.141 72.864 967.773 72.032 965.917 70.368C964.125 68.64 963.229 66.528 963.229 64.032C963.229 61.472 964.125 59.36 965.917 57.696C967.773 55.968 970.141 55.104 973.021 55.104C975.837 55.104 978.141 55.968 979.933 57.696C981.789 59.36 982.717 61.472 982.717 64.032C982.717 66.528 981.789 68.64 979.933 70.368C978.141 72.032 975.837 72.864 973.021 72.864ZM981.181 78.432V132H964.765V78.432H981.181Z" fill="#008080"/>
</svg>
